<svg width="177" height="200" viewBox="0 0 177 200" fill="none" xmlns="http://www.w3.org/2000/svg">
    <path
        d="M0.666667 6C0.666667 8.94552 3.05448 11.3333 6 11.3333C8.94552 11.3333 11.3333 8.94552 11.3333 6C11.3333 3.05448 8.94552 0.666667 6 0.666667C3.05448 0.666667 0.666667 3.05448 0.666667 6ZM176.707 192.707C177.098 192.317 177.098 191.683 176.707 191.293L170.343 184.929C169.953 184.538 169.319 184.538 168.929 184.929C168.538 185.319 168.538 185.953 168.929 186.343L174.586 192L168.929 197.657C168.538 198.047 168.538 198.681 168.929 199.071C169.319 199.462 169.953 199.462 170.343 199.071L176.707 192.707ZM5 10.3571C5 10.9094 5.44772 11.3571 6 11.3571C6.55228 11.3571 7 10.9094 7 10.3571H5ZM7 19.0714C7 18.5191 6.55228 18.0714 6 18.0714C5.44772 18.0714 5 18.5191 5 19.0714H7ZM5 27.7857C5 28.338 5.44772 28.7857 6 28.7857C6.55228 28.7857 7 28.338 7 27.7857H5ZM7 36.5C7 35.9477 6.55228 35.5 6 35.5C5.44772 35.5 5 35.9477 5 36.5H7ZM5 45.2143C5 45.7666 5.44772 46.2143 6 46.2143C6.55228 46.2143 7 45.7666 7 45.2143H5ZM7 53.9286C7 53.3763 6.55228 52.9286 6 52.9286C5.44772 52.9286 5 53.3763 5 53.9286H7ZM5 62.6429C5 63.1951 5.44772 63.6429 6 63.6429C6.55228 63.6429 7 63.1951 7 62.6429H5ZM7 71.3571C7 70.8049 6.55228 70.3571 6 70.3571C5.44772 70.3571 5 70.8049 5 71.3571H7ZM5 80.0714C5 80.6237 5.44772 81.0714 6 81.0714C6.55228 81.0714 7 80.6237 7 80.0714H5ZM7 88.7857C7 88.2334 6.55228 87.7857 6 87.7857C5.44772 87.7857 5 88.2334 5 88.7857H7ZM5 97.5C5 98.0523 5.44772 98.5 6 98.5C6.55228 98.5 7 98.0523 7 97.5H5ZM7 106.214C7 105.662 6.55228 105.214 6 105.214C5.44772 105.214 5 105.662 5 106.214H7ZM5 114.929C5 115.481 5.44772 115.929 6 115.929C6.55228 115.929 7 115.481 7 114.929H5ZM7 123.643C7 123.091 6.55228 122.643 6 122.643C5.44772 122.643 5 123.091 5 123.643H7ZM5.13703 132.254C5.17265 132.805 5.64831 133.223 6.19944 133.188C6.75058 133.152 7.16849 132.676 7.13287 132.125L5.13703 132.254ZM8.19917 140.296C8.09199 139.755 7.5659 139.402 7.02411 139.509C6.48233 139.617 6.13001 140.143 6.23719 140.684L8.19917 140.296ZM8.4337 148.901C8.61119 149.424 9.17904 149.704 9.70203 149.527C10.225 149.349 10.5051 148.781 10.3276 148.258L8.4337 148.901ZM13.4838 155.87C13.2392 155.375 12.6394 155.171 12.1443 155.416C11.6492 155.661 11.4461 156.26 11.6907 156.756L13.4838 155.87ZM15.9488 164.116C16.2561 164.575 16.8772 164.698 17.3361 164.39C17.7951 164.083 17.918 163.462 17.6108 163.003L15.9488 164.116ZM22.633 169.539C22.2687 169.124 21.6369 169.083 21.2218 169.447C20.8067 169.811 20.7655 170.443 21.1298 170.858L22.633 169.539ZM27.1419 176.87C27.557 177.234 28.1888 177.193 28.5531 176.778C28.9175 176.363 28.8763 175.731 28.4612 175.367L27.1419 176.87ZM34.9969 180.389C34.538 180.082 33.9169 180.205 33.6096 180.664C33.3024 181.123 33.4254 181.744 33.8843 182.051L34.9969 180.389ZM41.2444 186.309C41.7396 186.554 42.3393 186.351 42.5839 185.856C42.8286 185.361 42.6255 184.761 42.1303 184.516L41.2444 186.309ZM49.7417 187.672C49.2187 187.495 48.6509 187.775 48.4734 188.298C48.2959 188.821 48.576 189.389 49.099 189.566L49.7417 187.672ZM57.3156 191.763C57.8574 191.87 58.3834 191.518 58.4906 190.976C58.5978 190.434 58.2455 189.908 57.7037 189.801L57.3156 191.763ZM65.8747 190.867C65.3236 190.832 64.8479 191.249 64.8123 191.801C64.7767 192.352 65.1946 192.827 65.7457 192.863L65.8747 190.867ZM74.4167 193C74.969 193 75.4167 192.552 75.4167 192C75.4167 191.448 74.969 191 74.4167 191V193ZM83.25 191C82.6977 191 82.25 191.448 82.25 192C82.25 192.552 82.6977 193 83.25 193V191ZM92.0833 193C92.6356 193 93.0833 192.552 93.0833 192C93.0833 191.448 92.6356 191 92.0833 191V193ZM100.917 191C100.364 191 99.9167 191.448 99.9167 192C99.9167 192.552 100.364 193 100.917 193V191ZM109.75 193C110.302 193 110.75 192.552 110.75 192C110.75 191.448 110.302 191 109.75 191V193ZM118.583 191C118.031 191 117.583 191.448 117.583 192C117.583 192.552 118.031 193 118.583 193V191ZM127.417 193C127.969 193 128.417 192.552 128.417 192C128.417 191.448 127.969 191 127.417 191V193ZM136.25 191C135.698 191 135.25 191.448 135.25 192C135.25 192.552 135.698 193 136.25 193V191ZM145.083 193C145.636 193 146.083 192.552 146.083 192C146.083 191.448 145.636 191 145.083 191V193ZM153.917 191C153.364 191 152.917 191.448 152.917 192C152.917 192.552 153.364 193 153.917 193V191ZM162.75 193C163.302 193 163.75 192.552 163.75 192C163.75 191.448 163.302 191 162.75 191V193ZM171.583 191C171.031 191 170.583 191.448 170.583 192C170.583 192.552 171.031 193 171.583 193V191ZM5 6V10.3571H7V6H5ZM5 19.0714V27.7857H7V19.0714H5ZM5 36.5V45.2143H7V36.5H5ZM5 53.9286V62.6429H7V53.9286H5ZM5 71.3571V80.0714H7V71.3571H5ZM5 88.7857V97.5H7V88.7857H5ZM5 106.214V114.929H7V106.214H5ZM5 123.643V128H7V123.643H5ZM5 128C5 129.429 5.04614 130.848 5.13703 132.254L7.13287 132.125C7.04475 130.762 7 129.386 7 128H5ZM6.23719 140.684C6.79271 143.492 7.52909 146.236 8.4337 148.901L10.3276 148.258C9.45106 145.676 8.73749 143.017 8.19917 140.296L6.23719 140.684ZM11.6907 156.756C12.952 159.308 14.3759 161.766 15.9488 164.116L17.6108 163.003C16.0861 160.726 14.7061 158.344 13.4838 155.87L11.6907 156.756ZM21.1298 170.858C23.0011 172.99 25.0098 174.999 27.1419 176.87L28.4612 175.367C26.3943 173.553 24.4471 171.606 22.633 169.539L21.1298 170.858ZM33.8843 182.051C36.2338 183.624 38.6917 185.048 41.2444 186.309L42.1303 184.516C39.6565 183.294 37.2743 181.914 34.9969 180.389L33.8843 182.051ZM49.099 189.566C51.7644 190.471 54.5075 191.207 57.3156 191.763L57.7037 189.801C54.9825 189.263 52.3245 188.549 49.7417 187.672L49.099 189.566ZM65.7457 192.863C67.1522 192.954 68.5708 193 70 193V191C68.6139 191 67.2383 190.955 65.8747 190.867L65.7457 192.863ZM70 193H74.4167V191H70V193ZM83.25 193H92.0833V191H83.25V193ZM100.917 193H109.75V191H100.917V193ZM118.583 193H127.417V191H118.583V193ZM136.25 193H145.083V191H136.25V193ZM153.917 193H162.75V191H153.917V193ZM171.583 193H176V191H171.583V193Z"
        fill="#232323" fill-opacity="0.4" />
</svg>